<svg xmlns="http://www.w3.org/2000/svg" xmlns:xlink="http://www.w3.org/1999/xlink" width="350px" height="300px" viewBox="0 0 350 300" preserveAspectRatio="xMinYMin meet" ><rect id="svgEditorBackground" x="0" y="0" width="940" height="490" style="fill:none; stroke: none;"/><rect x="177.335526" y="82.847710" style="fill:snow;stroke:black;stroke-width:1px;" id="e4_rectangle" width="134.289993" height="203.429993" transform="matrix(1, 0, 0, 1, 0, 0)"/><rect x="21.543140" y="87.720055" style="fill:rosybrown;stroke:black;stroke-width:1px;" id="maxheight-tag0" width="100.000000" height="200.000000" transform="matrix(1 0 0 1 0 0)"/><rect x="21.543140" y="74.295380" style="fill:powderblue;stroke:black;stroke-width:1px;" id="height-tag0" width="100.000000" height="50.000000" transform="matrix(1 0 0 1 0 13.2911)"/><text style="fill:black;font-family:Arial;font-size:20px;kit-user-select: none;-ms-user-select: none;" x="30.7961" y="64.7168" id="tag0">tag0</text><text style="fill:black;font-family:Arial;font-size:20px;" x="16.3523" y="26.8999" id="e1_texte">Temperature</text><text style="fill:black;font-family:Arial;font-size:20px;" x="89.9915" y="65.1498" id="e2_texte">°C</text><circle id="tag1" cx="241.473099" cy="42.760006" style="fill:rosybrown;stroke:black;stroke-width:1px;" r="20.660000" transform="matrix(1, 0, 0, 1, 3.00739, 115.63)"/><text style="fill:black;font-family:Arial;font-size:20px;" x="200.391" y="-42.4251" id="e5_texte" xml:space="preserve" transform="matrix(1, 0, 0, 1, 0.730301, 161.731)">Fan State</text><text style="fill:black;font-family:Arial;font-size:20px;" x="206.402" y="149.985" id="e6_texte" transform="matrix(1, 0, 0, 1, -1.92381, 62.52)">Pressure</text><circle id="tag3" cx="247.486206" cy="245.190689" style="fill:rosybrown;stroke:black;stroke-width:1px;" r="20.660000" transform="matrix(1, 0, 0, 1, -3.00571, 0)"/></svg>